<svg width="58" height="58" fill="none" xmlns="http://www.w3.org/2000/svg"><rect width="58" height="58" rx="8" fill="#1E252B"/><path d="M40.45 22.996c.019.262.019.523.019.784 0 7.988-6.08 17.192-17.19 17.192-3.423 0-6.603-.992-9.279-2.714.486.056.954.075 1.46.075a12.107 12.107 0 007.501-2.581 6.054 6.054 0 01-5.65-4.19c.373.056.748.093 1.141.093.541 0 1.086-.075 1.591-.205a6.04 6.04 0 01-4.845-5.93v-.075c.806.449 1.74.73 2.73.767a6.034 6.034 0 01-2.694-5.031c0-1.122.299-2.151.822-3.048a17.187 17.187 0 0012.46 6.322 6.866 6.866 0 01-.15-1.384 6.04 6.04 0 016.041-6.042c1.74 0 3.311.729 4.415 1.908a11.937 11.937 0 003.834-1.46 6.03 6.03 0 01-2.657 3.33c1.2-.137 2.373-.452 3.479-.936a12.968 12.968 0 01-3.029 3.125z" fill="#fff" fill-opacity=".78"/></svg>