<svg width="58" height="58" fill="none" xmlns="http://www.w3.org/2000/svg"><rect width="58" height="58" rx="8" fill="#1E252B"/><path d="M28.998 22.065a6.936 6.936 0 100 13.873 6.936 6.936 0 000-13.873zm0 11.44a4.506 4.506 0 110-9.01 4.506 4.506 0 010 9.01zm7.211-10.078a1.617 1.617 0 100-3.234 1.617 1.617 0 000 3.234z" fill="#fff" fill-opacity=".78"/><path d="M41.8 20.166a6.908 6.908 0 00-3.95-3.948 9.913 9.913 0 00-3.279-.63c-1.444-.063-1.902-.08-5.565-.08-3.663 0-4.133 0-5.565.08a9.832 9.832 0 00-3.276.63 6.902 6.902 0 00-3.95 3.948 9.879 9.879 0 00-.628 3.28c-.064 1.442-.084 1.9-.084 5.564 0 3.663 0 4.13.084 5.565a9.893 9.893 0 00.628 3.28 6.913 6.913 0 003.951 3.949 9.876 9.876 0 003.278.675c1.445.063 1.902.082 5.565.082 3.663 0 4.133 0 5.565-.082a9.92 9.92 0 003.279-.629 6.922 6.922 0 003.95-3.95 9.877 9.877 0 00.628-3.278c.065-1.443.084-1.9.084-5.565 0-3.665 0-4.13-.084-5.565a9.873 9.873 0 00-.631-3.326zm-1.828 14.298a7.566 7.566 0 01-.466 2.532 4.48 4.48 0 01-2.568 2.567 7.476 7.476 0 01-2.505.466c-1.425.066-1.827.083-5.481.083-3.657 0-4.03 0-5.483-.083a7.437 7.437 0 01-2.503-.466 4.477 4.477 0 01-2.579-2.567 7.621 7.621 0 01-.466-2.503c-.064-1.425-.08-1.827-.08-5.481 0-3.656 0-4.03.08-5.483.01-.863.168-1.72.466-2.53a4.48 4.48 0 012.579-2.568 7.519 7.519 0 012.503-.467c1.427-.064 1.828-.082 5.483-.082 3.655 0 4.03 0 5.481.082.856.01 1.703.169 2.505.467a4.488 4.488 0 012.568 2.568c.295.802.453 1.649.466 2.503.065 1.427.081 1.827.081 5.483 0 3.654 0 4.047-.064 5.481h-.017v-.002z" fill="#fff" fill-opacity=".78"/></svg>